<svg width="184" height="248" viewBox="0 0 184 248" fill="none" xmlns="http://www.w3.org/2000/svg">
<path d="M88.3929 247.179C71.4644 247.179 56.3572 243.214 43.0715 235.286C29.7858 227.143 19.2858 216.107 11.5715 202.179C3.85721 188.25 6.9503e-05 172.822 6.9503e-05 155.893C6.9503e-05 138.75 3.85721 123.322 11.5715 109.607C19.2858 95.893 29.7858 84.9644 43.0715 76.8215C56.5715 68.6787 71.5715 64.6072 88.0715 64.6072C101.357 64.6072 113.143 67.2858 123.429 72.643C133.929 77.7858 142.179 85.0715 148.179 94.5001L141.75 103.179V0.000105183H183.857V243.322H144V209.572L148.5 217.929C142.5 227.357 134.143 234.643 123.429 239.786C112.714 244.714 101.036 247.179 88.3929 247.179ZM92.8929 208.607C102.536 208.607 111 206.357 118.286 201.857C125.571 197.357 131.25 191.143 135.321 183.214C139.607 175.286 141.75 166.179 141.75 155.893C141.75 145.822 139.607 136.822 135.321 128.893C131.25 120.75 125.571 114.429 118.286 109.929C111 105.429 102.536 103.179 92.8929 103.179C83.4644 103.179 75.0001 105.536 67.5001 110.25C60.0001 114.75 54.1072 120.964 49.8215 128.893C45.7501 136.607 43.7144 145.607 43.7144 155.893C43.7144 166.179 45.7501 175.286 49.8215 183.214C54.1072 191.143 60.0001 197.357 67.5001 201.857C75.0001 206.357 83.4644 208.607 92.8929 208.607Z" fill="white"/>
</svg>
