<svg width="1185" height="280" viewBox="0 0 1185 280" fill="none" xmlns="http://www.w3.org/2000/svg">
<path d="M-0.000104958 216.286V3.4285H69.4285C91.9047 3.4285 111.428 7.99993 128 17.1428C144.762 26.0952 157.714 38.5714 166.857 54.5714C176 70.3809 180.571 88.7618 180.571 109.714C180.571 130.476 176 148.952 166.857 165.143C157.714 181.143 144.762 193.714 128 202.857C111.428 211.809 91.9047 216.286 69.4285 216.286H-0.000104958ZM38.857 182H70.2856C84.7618 182 97.238 179.048 107.714 173.143C118.381 167.048 126.667 158.667 132.571 148C138.476 137.143 141.428 124.381 141.428 109.714C141.428 94.8571 138.476 82.0952 132.571 71.4285C126.667 60.7618 118.381 52.4761 107.714 46.5714C97.238 40.6666 84.7618 37.7142 70.2856 37.7142H38.857V182ZM284.353 219.714C269.114 219.714 255.21 216.19 242.638 209.143C230.257 202.095 220.353 192.476 212.924 180.286C205.686 168.095 202.067 154.19 202.067 138.571C202.067 122.952 205.686 109.048 212.924 96.8571C220.353 84.6666 230.257 75.0476 242.638 67.9999C255.019 60.9523 268.924 57.4285 284.353 57.4285C299.591 57.4285 313.4 60.9523 325.781 67.9999C338.162 75.0476 347.972 84.6666 355.21 96.8571C362.638 108.857 366.353 122.762 366.353 138.571C366.353 154.19 362.638 168.095 355.21 180.286C347.781 192.476 337.876 202.095 325.495 209.143C313.114 216.19 299.4 219.714 284.353 219.714ZM284.353 185.429C292.734 185.429 300.067 183.429 306.353 179.429C312.829 175.429 317.876 169.905 321.495 162.857C325.305 155.619 327.21 147.524 327.21 138.571C327.21 129.429 325.305 121.429 321.495 114.571C317.876 107.524 312.829 102 306.353 97.9999C300.067 93.8095 292.734 91.7142 284.353 91.7142C275.781 91.7142 268.257 93.8095 261.781 97.9999C255.305 102 250.162 107.524 246.353 114.571C242.734 121.429 240.924 129.429 240.924 138.571C240.924 147.524 242.734 155.619 246.353 162.857C250.162 169.905 255.305 175.429 261.781 179.429C268.257 183.429 275.781 185.429 284.353 185.429ZM394.736 216.286V-6.15638e-05H432.165V141.714L417.879 137.429L491.022 60.8571H537.594L480.165 123.429L538.736 216.286H495.879L445.022 135.714L467.308 131.143L420.451 181.429L432.165 158.571V216.286H394.736Z" fill="white"/>
<path d="M562.779 216.286V3.4285H601.636V182H692.779V216.286H562.779ZM722.187 279.143C717.997 279.143 713.902 278.762 709.902 278C705.902 277.429 702.283 276.286 699.044 274.571V243.429C701.521 244 704.473 244.571 707.902 245.143C711.521 245.714 714.854 246 717.902 246C726.473 246 732.664 244 736.473 240C740.473 236.19 743.997 231.048 747.044 224.571L757.33 200.571L756.759 232L689.044 60.8571H729.33L776.759 187.143H762.473L809.616 60.8571H850.187L782.473 232C778.473 241.905 773.616 250.381 767.902 257.429C762.187 264.476 755.521 269.809 747.902 273.428C740.473 277.238 731.902 279.143 722.187 279.143ZM870.741 216.286V60.8571H905.884V91.4285L903.027 85.9999C906.646 76.6666 912.55 69.619 920.741 64.8571C929.122 59.9047 938.836 57.4285 949.884 57.4285C961.312 57.4285 971.408 59.9047 980.169 64.8571C989.122 69.8095 996.074 76.7618 1001.03 85.7142C1005.98 94.4761 1008.46 104.667 1008.46 116.286V216.286H971.027V125.143C971.027 118.286 969.693 112.381 967.027 107.429C964.36 102.476 960.646 98.6666 955.884 95.9999C951.312 93.1428 945.884 91.7142 939.598 91.7142C933.503 91.7142 928.074 93.1428 923.312 95.9999C918.55 98.6666 914.836 102.476 912.169 107.429C909.503 112.381 908.169 118.286 908.169 125.143V216.286H870.741ZM1040.1 216.286V-6.15638e-05H1077.53V141.714L1063.25 137.429L1136.39 60.8571H1182.96L1125.53 123.429L1184.1 216.286H1141.25L1090.39 135.714L1112.68 131.143L1065.82 181.429L1077.53 158.571V216.286H1040.1Z" fill="#1E7B74"/>
</svg>
