<svg width="400" height="400" viewBox="0 0 400 400" fill="none" xmlns="http://www.w3.org/2000/svg">
<rect width="400" height="400" rx="90" fill="white"/>
<path d="M338.215 141.434C327.337 115.635 309.464 93.3987 286.617 77.24C263.77 61.0813 236.861 51.6455 208.935 50V100.191C259.904 104.727 300.002 147.69 300.002 199.883C300.019 214.427 296.85 228.798 290.717 241.984L312.47 254.557L334.158 267.09C335.586 264.23 336.935 261.309 338.204 258.328C345.989 239.827 350 219.955 350 199.879C350 179.804 345.989 159.931 338.204 141.43L338.215 141.434Z" fill="#0E1213"/>
<path d="M141.616 61.536C104.978 77.0581 75.9932 106.502 61.0274 143.401C46.0616 180.301 46.3389 221.637 61.7984 258.332C63.0626 261.311 64.415 264.23 65.8554 267.09L87.5473 254.553L109.296 241.984C103.164 228.798 99.994 214.427 100.011 199.883C100.011 147.69 140.109 104.727 191.078 100.191V50C174.052 50.9792 157.321 54.8814 141.616 61.536Z" fill="#0E1213"/>
<path d="M303.523 270.028L281.764 257.438C263.647 283.155 233.752 299.978 200.007 299.978C166.262 299.978 136.367 283.155 118.249 257.438L96.4897 270.014L74.7871 282.569C88.4625 303.296 107.059 320.305 128.912 332.072C150.765 343.84 175.192 350 200.007 350C224.821 350 249.248 343.84 271.101 332.072C292.954 320.305 311.551 303.296 325.226 282.569L303.523 270.028Z" fill="#0E1213"/>
</svg>
