<svg width="500" height="500" viewBox="0 0 500 500" fill="none" xmlns="http://www.w3.org/2000/svg">
<g clip-path="url(#clip0_208_4278)">
<path d="M390.625 0H109.375C48.9689 0 0 48.9689 0 109.375V390.625C0 451.031 48.9689 500 109.375 500H390.625C451.031 500 500 451.031 500 390.625V109.375C500 48.9689 451.031 0 390.625 0Z" fill="#1E7B74"/>
<path d="M207.5 375.625C191.042 375.625 176.354 371.771 163.438 364.062C150.521 356.146 140.313 345.417 132.813 331.875C125.313 318.333 121.563 303.333 121.563 286.875C121.563 270.208 125.313 255.208 132.813 241.875C140.313 228.542 150.521 217.917 163.438 210C176.563 202.083 191.146 198.125 207.188 198.125C220.104 198.125 231.563 200.729 241.563 205.937C251.771 210.937 259.792 218.021 265.625 227.187L259.375 235.625V135.312H300.313V371.875H261.563V339.062L265.938 347.187C260.104 356.354 251.979 363.437 241.563 368.437C231.146 373.229 219.792 375.625 207.5 375.625ZM211.875 338.125C221.25 338.125 229.479 335.937 236.563 331.562C243.646 327.187 249.167 321.146 253.125 313.437C257.292 305.729 259.375 296.875 259.375 286.875C259.375 277.083 257.292 268.333 253.125 260.625C249.167 252.708 243.646 246.562 236.563 242.187C229.479 237.812 221.25 235.625 211.875 235.625C202.708 235.625 194.479 237.917 187.188 242.5C179.896 246.875 174.167 252.917 170 260.625C166.042 268.125 164.063 276.875 164.063 286.875C164.063 296.875 166.042 305.729 170 313.437C174.167 321.146 179.896 327.187 187.188 331.562C194.479 335.937 202.708 338.125 211.875 338.125Z" fill="white"/>
<path d="M343.75 356.25C359.283 356.25 371.875 343.658 371.875 328.125C371.875 312.592 359.283 300 343.75 300C328.217 300 315.625 312.592 315.625 328.125C315.625 343.658 328.217 356.25 343.75 356.25Z" fill="white"/>
</g>
<defs>
<clipPath id="clip0_208_4278">
<rect width="500" height="500" fill="white"/>
</clipPath>
</defs>
</svg>
