<svg width="1852" height="500" viewBox="0 0 1852 500" fill="none" xmlns="http://www.w3.org/2000/svg">
<path d="M383.929 0H116.071C51.9669 0 0 51.9669 0 116.071V383.929C0 448.033 51.9669 500 116.071 500H383.929C448.033 500 500 448.033 500 383.929V116.071C500 51.9669 448.033 0 383.929 0Z" fill="#1E7B74"/>
<path d="M208.071 373.572C191.143 373.572 176.035 369.607 162.75 361.679C149.464 353.536 138.964 342.5 131.25 328.572C123.535 314.643 119.678 299.214 119.678 282.286C119.678 265.143 123.535 249.714 131.25 236C138.964 222.286 149.464 211.357 162.75 203.214C176.25 195.072 191.25 191 207.75 191C221.035 191 232.821 193.679 243.107 199.036C253.607 204.179 261.857 211.464 267.857 220.893L261.428 229.572V126.393H303.535V369.714H263.678V335.964L268.178 344.322C262.178 353.75 253.821 361.036 243.107 366.179C232.393 371.107 220.714 373.572 208.071 373.572ZM212.571 335C222.214 335 230.678 332.75 237.964 328.25C245.25 323.75 250.928 317.536 255 309.607C259.285 301.679 261.428 292.572 261.428 282.286C261.428 272.214 259.285 263.214 255 255.286C250.928 247.143 245.25 240.822 237.964 236.322C230.678 231.822 222.214 229.572 212.571 229.572C203.143 229.572 194.678 231.929 187.178 236.643C179.678 241.143 173.785 247.357 169.5 255.286C165.428 263 163.393 272 163.393 282.286C163.393 292.572 165.428 301.679 169.5 309.607C173.785 317.536 179.678 323.75 187.178 328.25C194.678 332.75 203.143 335 212.571 335Z" fill="white"/>
<path d="M357.143 350C372.922 350 385.714 337.208 385.714 321.429C385.714 305.649 372.922 292.857 357.143 292.857C341.363 292.857 328.571 305.649 328.571 321.429C328.571 337.208 341.363 350 357.143 350Z" fill="white"/>
<path d="M663.428 350.571V137.714H732.857C755.333 137.714 774.857 142.286 791.428 151.429C808.19 160.381 821.143 172.857 830.285 188.857C839.428 204.667 844 223.048 844 244C844 264.762 839.428 283.238 830.285 299.429C821.143 315.429 808.19 328 791.428 337.143C774.857 346.095 755.333 350.571 732.857 350.571H663.428ZM702.286 316.286H733.714C748.19 316.286 760.666 313.333 771.143 307.429C781.809 301.333 790.095 292.952 796 282.286C801.905 271.429 804.857 258.667 804.857 244C804.857 229.143 801.905 216.381 796 205.714C790.095 195.048 781.809 186.762 771.143 180.857C760.666 174.952 748.19 172 733.714 172H702.286V316.286ZM947.781 354C932.543 354 918.638 350.476 906.067 343.429C893.686 336.381 883.781 326.762 876.352 314.571C869.114 302.381 865.495 288.476 865.495 272.857C865.495 257.238 869.114 243.333 876.352 231.143C883.781 218.952 893.686 209.333 906.067 202.286C918.448 195.238 932.352 191.714 947.781 191.714C963.019 191.714 976.829 195.238 989.21 202.286C1001.59 209.333 1011.4 218.952 1018.64 231.143C1026.07 243.143 1029.78 257.048 1029.78 272.857C1029.78 288.476 1026.07 302.381 1018.64 314.571C1011.21 326.762 1001.3 336.381 988.924 343.429C976.543 350.476 962.829 354 947.781 354ZM947.781 319.714C956.162 319.714 963.495 317.714 969.781 313.714C976.257 309.714 981.305 304.191 984.924 297.143C988.733 289.905 990.638 281.81 990.638 272.857C990.638 263.714 988.733 255.714 984.924 248.857C981.305 241.81 976.257 236.286 969.781 232.286C963.495 228.095 956.162 226 947.781 226C939.21 226 931.686 228.095 925.21 232.286C918.733 236.286 913.591 241.81 909.781 248.857C906.162 255.714 904.352 263.714 904.352 272.857C904.352 281.81 906.162 289.905 909.781 297.143C913.591 304.191 918.733 309.714 925.21 313.714C931.686 317.714 939.21 319.714 947.781 319.714ZM1058.16 350.571V134.286H1095.59V276L1081.31 271.714L1154.45 195.143H1201.02L1143.59 257.714L1202.16 350.571H1159.31L1108.45 270L1130.74 265.429L1083.88 315.714L1095.59 292.857V350.571H1058.16Z" fill="white"/>
<path d="M1226.21 350.571V137.714H1265.06V316.286H1356.21V350.571H1226.21ZM1385.62 413.429C1381.43 413.429 1377.33 413.048 1373.33 412.286C1369.33 411.714 1365.71 410.571 1362.47 408.857V377.714C1364.95 378.286 1367.9 378.857 1371.33 379.429C1374.95 380 1378.28 380.286 1381.33 380.286C1389.9 380.286 1396.09 378.286 1399.9 374.286C1403.9 370.476 1407.43 365.333 1410.47 358.857L1420.76 334.857L1420.19 366.286L1352.47 195.143H1392.76L1440.19 321.429H1425.9L1473.04 195.143H1513.62L1445.9 366.286C1441.9 376.191 1437.04 384.667 1431.33 391.714C1425.62 398.762 1418.95 404.095 1411.33 407.714C1403.9 411.524 1395.33 413.429 1385.62 413.429ZM1534.17 350.571V195.143H1569.31V225.714L1566.46 220.286C1570.07 210.952 1575.98 203.905 1584.17 199.143C1592.55 194.191 1602.26 191.714 1613.31 191.714C1624.74 191.714 1634.84 194.191 1643.6 199.143C1652.55 204.095 1659.5 211.048 1664.46 220C1669.41 228.762 1671.88 238.952 1671.88 250.571V350.571H1634.46V259.429C1634.46 252.571 1633.12 246.667 1630.46 241.714C1627.79 236.762 1624.07 232.952 1619.31 230.286C1614.74 227.429 1609.31 226 1603.03 226C1596.93 226 1591.5 227.429 1586.74 230.286C1581.98 232.952 1578.26 236.762 1575.6 241.714C1572.93 246.667 1571.6 252.571 1571.6 259.429V350.571H1534.17ZM1703.53 350.571V134.286H1740.96V276L1726.68 271.714L1799.82 195.143H1846.39L1788.96 257.714L1847.53 350.571H1804.68L1753.82 270L1776.1 265.429L1729.25 315.714L1740.96 292.857V350.571H1703.53Z" fill="#1E7B74"/>
</svg>
