<svg width="1300" height="250" viewBox="0 0 1300 250" fill="none" xmlns="http://www.w3.org/2000/svg">
<path d="M179.579 119.393C172.801 103.319 161.665 89.4639 147.43 79.3959C133.194 69.328 116.428 63.4488 99.0286 62.4236V93.6959C130.786 96.5224 155.77 123.291 155.77 155.811C155.78 164.873 153.805 173.827 149.984 182.042L163.538 189.876L177.051 197.685C177.941 195.903 178.781 194.083 179.572 192.226C184.423 180.699 186.922 168.317 186.922 155.808C186.922 143.3 184.423 130.918 179.572 119.391L179.579 119.393Z" fill="white"/>
<path d="M57.0848 69.6113C34.2569 79.2826 16.1972 97.6283 6.87247 120.619C-2.45223 143.609 -2.27945 169.365 7.35287 192.228C8.14057 194.084 8.98316 195.903 9.88063 197.685L23.3961 189.874L36.9472 182.042C33.1261 173.827 31.1513 164.873 31.1619 155.811C31.1619 123.291 56.1457 96.5224 87.9029 93.6959V62.4236C77.2946 63.0337 66.87 65.465 57.0848 69.6113Z" fill="white"/>
<path d="M157.964 199.516L144.406 191.671C133.118 207.695 114.491 218.177 93.4658 218.177C72.4404 218.177 53.8138 207.695 42.5256 191.671L28.9679 199.507L15.4457 207.33C23.9664 220.244 35.5533 230.841 49.1691 238.173C62.785 245.506 78.0047 249.344 93.4658 249.344C108.927 249.344 124.147 245.506 137.762 238.173C151.378 230.841 162.965 220.244 171.486 207.33L157.964 199.516Z" fill="white"/>
<path d="M460.432 63.1224C511.731 57.0099 558.249 93.6976 564.261 145.008C570.271 196.319 533.491 242.764 482.169 248.673C430.991 254.565 384.704 217.911 378.71 166.744C372.717 115.578 409.278 69.218 460.432 63.1224ZM530.739 149.292C526.943 116.543 497.237 93.1271 464.507 97.0862C432.007 101.017 408.792 130.47 412.56 162.989C416.329 195.507 445.666 218.869 478.203 215.263C510.97 211.631 534.534 182.042 530.739 149.292Z" fill="white"/>
<path d="M973.335 63.325C1024.4 56.65 1071.22 92.5758 1078 143.625C1084.77 194.674 1048.93 241.57 997.901 248.444C946.721 255.337 899.67 219.381 892.878 168.191C886.087 117.002 922.133 70.0185 973.335 63.325ZM1044.64 148.758C1040.54 116.2 1010.84 93.1166 978.278 97.1707C945.647 101.234 922.502 131.007 926.615 163.633C930.728 196.26 960.534 219.359 993.15 215.198C1025.7 211.046 1048.74 181.315 1044.64 148.758Z" fill="white"/>
<path d="M1203.07 64.3269C1243.89 58.7485 1289.92 87.2414 1297.51 128.549C1300.74 146.111 1299.9 162.834 1299.9 180.565L1299.84 244.097L1265.39 244.118L1265.42 178.091C1265.43 167.886 1266.01 148.741 1264.36 139.508C1263.08 132.096 1260.18 125.058 1255.87 118.896C1246.62 105.826 1233.8 100.384 1218.53 97.7827C1201.18 96.2686 1183.89 101.019 1171.29 113.493C1164.95 119.718 1160.49 127.614 1158.45 136.265C1156.2 145.879 1157.03 167.502 1157.03 178.511L1156.96 244.126L1122.39 244.142L1122.31 178.546C1122.29 164.655 1121.5 144.474 1124.13 131.49C1126.59 119.38 1131.75 107.979 1139.21 98.1358C1155.03 77.3892 1177.99 67.745 1203.07 64.3269Z" fill="white"/>
<path d="M594.65 68.2867L619.714 68.3075L678.161 204.108L737.928 68.3811L774.035 68.4226C769.323 80.0429 763.184 93.119 758.065 104.724L719.955 191.619C714.046 205.141 707.814 221.273 700.7 233.96C691.821 248.264 663.02 248.898 654.939 233.783C645.492 216.122 637.104 194.735 629.13 176.16L582.711 68.4633L594.65 68.2867Z" fill="white"/>
<path d="M307.886 67.3805C316.735 66.3092 341.837 66.9377 351.937 66.9853L351.952 99.4703C329.046 99.6453 301.317 95.2104 283.715 112.882C266.595 130.069 269.809 154.106 269.82 176.359L269.843 234.634L269.802 244.163L235.154 244.124C234.85 222.97 235.135 201.339 235.071 180.126C235.549 163.741 233.808 147.146 236.791 130.945C243.764 93.0808 271.295 72.0925 307.886 67.3805Z" fill="white"/>
<path d="M810.711 67.9568C821.478 67.6084 834.232 67.9107 845.145 67.9245L845.137 244.066L810.649 244.093L810.711 67.9568Z" fill="white"/>
<path d="M822.306 0.711324C833.603 -2.28623 845.183 4.46786 848.138 15.7751C851.085 27.0823 844.285 38.6359 832.974 41.5444C821.715 44.4361 810.235 37.6827 807.303 26.4377C804.364 15.1934 811.071 3.69123 822.306 0.711324Z" fill="white"/>
</svg>
