<svg width="1500" height="450" viewBox="0 0 1500 450" fill="none" xmlns="http://www.w3.org/2000/svg">
<rect width="1500" height="449.346" fill="#0E1213"/>
<path d="M279.579 219.393C272.801 203.319 261.665 189.464 247.43 179.396C233.194 169.328 216.428 163.449 199.029 162.424V193.696C230.786 196.523 255.77 223.291 255.77 255.811C255.78 264.873 253.805 273.827 249.984 282.043L263.538 289.876L277.051 297.685C277.941 295.904 278.781 294.084 279.572 292.226C284.423 280.699 286.922 268.317 286.922 255.809C286.922 243.3 284.423 230.918 279.572 219.391L279.579 219.393Z" fill="white"/>
<path d="M157.085 169.612C134.257 179.283 116.197 197.629 106.873 220.619C97.5478 243.61 97.7206 269.365 107.353 292.228C108.141 294.084 108.983 295.904 109.881 297.685L123.396 289.874L136.947 282.043C133.126 273.827 131.151 264.873 131.162 255.811C131.162 223.291 156.146 196.523 187.903 193.696V162.424C177.295 163.034 166.87 165.465 157.085 169.612Z" fill="white"/>
<path d="M257.964 299.516L244.406 291.671C233.118 307.695 214.491 318.177 193.466 318.177C172.441 318.177 153.814 307.695 142.526 291.671L128.968 299.507L115.446 307.33C123.966 320.244 135.553 330.842 149.169 338.174C162.785 345.506 178.005 349.344 193.466 349.344C208.927 349.344 224.147 345.506 237.763 338.174C251.378 330.842 262.965 320.244 271.486 307.33L257.964 299.516Z" fill="white"/>
<path d="M560.433 163.123C611.731 157.011 658.25 193.698 664.261 245.009C670.271 296.319 633.491 342.765 582.169 348.674C530.991 354.566 484.704 317.911 478.709 266.745C472.716 215.579 509.278 169.219 560.433 163.123ZM630.738 249.292C626.943 216.543 597.237 193.128 564.507 197.087C532.007 201.018 508.791 230.47 512.56 262.988C516.329 295.507 545.665 318.869 578.202 315.263C610.97 311.631 634.533 282.042 630.738 249.292Z" fill="white"/>
<path d="M1073.34 163.325C1124.4 156.65 1171.22 192.576 1178 243.625C1184.77 294.674 1148.93 341.57 1097.9 348.444C1046.72 355.337 999.67 319.382 992.879 268.192C986.087 217.002 1022.13 170.018 1073.34 163.325ZM1144.64 248.758C1140.54 216.2 1110.84 193.117 1078.28 197.171C1045.65 201.235 1022.5 231.007 1026.61 263.633C1030.73 296.26 1060.53 319.359 1093.15 315.198C1125.7 311.045 1148.74 281.315 1144.64 248.758Z" fill="white"/>
<path d="M1303.07 164.327C1343.89 158.748 1389.92 187.241 1397.51 228.549C1400.74 246.111 1399.9 262.834 1399.9 280.565L1399.84 344.097L1365.39 344.118L1365.42 278.091C1365.43 267.886 1366.01 248.741 1364.36 239.508C1363.08 232.096 1360.18 225.058 1355.87 218.896C1346.62 205.826 1333.8 200.384 1318.53 197.783C1301.18 196.269 1283.89 201.019 1271.29 213.493C1264.95 219.718 1260.49 227.614 1258.45 236.265C1256.2 245.879 1257.03 267.502 1257.03 278.511L1256.96 344.126L1222.39 344.142L1222.31 278.546C1222.29 264.655 1221.5 244.474 1224.13 231.49C1226.59 219.38 1231.75 207.979 1239.21 198.136C1255.03 177.389 1277.99 167.745 1303.07 164.327Z" fill="white"/>
<path d="M694.65 168.287L719.714 168.307L778.161 304.108L837.928 168.381L874.036 168.423C869.324 180.043 863.184 193.119 858.065 204.724L819.955 291.619C814.046 305.141 807.814 321.273 800.7 333.96C791.821 348.264 763.02 348.898 754.939 333.783C745.492 316.122 737.104 294.735 729.131 276.16L682.711 168.463L694.65 168.287Z" fill="white"/>
<path d="M407.886 167.381C416.735 166.309 441.837 166.938 451.937 166.985L451.952 199.47C429.046 199.645 401.317 195.21 383.715 212.882C366.595 230.069 369.809 254.106 369.82 276.359L369.843 334.634L369.802 344.163L335.154 344.124C334.85 322.97 335.135 301.339 335.071 280.126C335.549 263.741 333.808 247.146 336.791 230.945C343.764 193.081 371.295 172.092 407.886 167.381Z" fill="white"/>
<path d="M910.711 167.957C921.478 167.608 934.232 167.911 945.145 167.925L945.137 344.066L910.649 344.093L910.711 167.957Z" fill="white"/>
<path d="M922.306 100.711C933.603 97.7138 945.183 104.468 948.138 115.775C951.085 127.082 944.285 138.636 932.974 141.544C921.715 144.436 910.235 137.683 907.303 126.438C904.364 115.193 911.071 103.691 922.306 100.711Z" fill="white"/>
</svg>
