<svg xmlns="http://www.w3.org/2000/svg" viewBox="0 0 300 300" fill="none">
  <style>path{fill:#0E1213}@media (prefers-color-scheme:dark){path{fill:#fff}}</style>
  <path d="M288.215 91.434C277.337 65.6352 259.464 43.3987 236.617 27.24C213.77 11.0813 186.861 1.64546 158.935 0V50.1909C209.904 54.7274 250.002 97.69 250.002 149.883C250.019 164.427 246.85 178.798 240.717 191.984L262.469 204.557L284.158 217.09C285.586 214.23 286.935 211.309 288.204 208.328C295.989 189.827 300 169.955 300 149.879C300 129.804 295.989 109.931 288.204 91.4304L288.215 91.434Z"/>
  <path d="M91.6163 11.536C54.9784 27.0581 25.9932 56.5023 11.0274 93.4014C-3.93844 130.301 -3.66113 171.637 11.7984 208.332C13.0626 211.311 14.415 214.23 15.8554 217.09L37.5473 204.553L59.2963 191.984C53.1635 178.798 49.994 164.427 50.011 149.883C50.011 97.69 90.1092 54.7274 141.078 50.1909V0C124.052 0.97917 107.321 4.88136 91.6163 11.536Z"/>
  <path d="M253.523 220.028L231.764 207.438C213.647 233.155 183.752 249.978 150.007 249.978C116.262 249.978 86.3665 233.155 68.2495 207.438L46.4897 220.014L24.7871 232.569C38.4625 253.296 57.0591 270.305 78.912 282.072C100.765 293.84 125.192 300 150.007 300C174.821 300 199.248 293.84 221.101 282.072C242.954 270.305 261.551 253.296 275.226 232.569L253.523 220.028Z"/>
</svg>
